# xmcd
#
# Track frame offsets:
#	225
#	12557
#	25599
#	41337
#	54666
#	75756
#	90633
#	101240
#	115080
#	124620
#	137749
#	148015
#	160737
#	170848
#	184098
#	195748
#
# Disc length: 2753 seconds
#
# Revision: 4
# Processed by: cddbd v1.5.2PL0 Copyright (c) Steve Scherf et al.
# Submitted via: audiograbber 1.83.01
#
DISCID=cc0abe10,d00abe10
DTITLE=Various Artist - Country Highlights CD 1
DYEAR=0
DGENRE=Country
TTITLE0=Lyn Anderson - Stand By Your Man
TTITLE1=Kenny Rogers - Ruby, Don't Take Your Love To Town
TTITLE2=Billy Joe Spears - Blanket On The Ground
TTITLE3=Petty Page - Tennessee Waltz
TTITLE4=Andre Lamberz - The Bluest Eyes Of Texas
TTITLE5=Frankie Laine - Sixteen Tons
TTITLE6=Don Gibson - Oh Lonesome Me
TTITLE7=Willie Nelson - Home Is Where You're Happy
TTITLE8=Donna Fargo - Stick And Stones
TTITLE9=Stu Stevens - Love Me Tender
TTITLE10=Buddy Knox - Devil Woman
TTITLE11=Lee Hazlewood - These Boots Are Made For Walkin'
TTITLE12=Ricky Nelson - Never Be Anyone Else But You
TTITLE13=Bobby Bare - Detroit City
TTITLE14=Johnny Cash - Ring Of Fire
TTITLE15=Hank Locklin - Send Me The Pillow You Dream On
EXTD=
EXTT0=
EXTT1=
EXTT2=
EXTT3=
EXTT4=
EXTT5=
EXTT6=
EXTT7=
EXTT8=
EXTT9=
EXTT10=
EXTT11=
EXTT12=
EXTT13=
EXTT14=
EXTT15=
PLAYORDER=
